<?xml version="1.0" standalone="no"?>
<!DOCTYPE svg PUBLIC "-//W3C//DTD SVG 1.1//EN" "http://www.w3.org/Graphics/SVG/1.1/DTD/svg11.dtd" >
<!--
2013-9-30: Created.
-->
<svg>
<metadata>
Created by iconfont
</metadata>
<defs>

<font id="iconfont" horiz-adv-x="1024" >
  <font-face
    font-family="iconfont"
    font-weight="500"
    font-stretch="normal"
    units-per-em="1024"
    ascent="896"
    descent="-128"
  />
    <missing-glyph />
    
    <glyph glyph-name="x" unicode="x" horiz-adv-x="1001"
d="M281 543q-27 -1 -53 -1h-83q-18 0 -36.5 -6t-32.5 -18.5t-23 -32t-9 -45.5v-76h912v41q0 16 -0.5 30t-0.5 18q0 13 -5 29t-17 29.5t-31.5 22.5t-49.5 9h-133v-97h-438v97zM955 310v-52q0 -23 0.5 -52t0.5 -58t-10.5 -47.5t-26 -30t-33 -16t-31.5 -4.5q-14 -1 -29.5 -0.5
t-29.5 0.5h-32l-45 128h-439l-44 -128h-29h-34q-20 0 -45 1q-25 0 -41 9.5t-25.5 23t-13.5 29.5t-4 30v167h911zM163 247q-12 0 -21 -8.5t-9 -21.5t9 -21.5t21 -8.5q13 0 22 8.5t9 21.5t-9 21.5t-22 8.5zM316 123q-8 -26 -14 -48q-5 -19 -10.5 -37t-7.5 -25t-3 -15t1 -14.5
t9.5 -10.5t21.5 -4h37h67h81h80h64h36q23 0 34 12t2 38q-5 13 -9.5 30.5t-9.5 34.5q-5 19 -11 39h-368zM336 498v228q0 11 2.5 23t10 21.5t20.5 15.5t34 6h188q31 0 51.5 -14.5t20.5 -52.5v-227h-327z" />
    

    
    <glyph glyph-name="kuaisubanqia" unicode="&#58984;" d="M0.235648 300.008331C0.24398 582.774797 229.359689 811.989289 512.001189 812l0 0C794.65221 811.992859 1023.754828 582.774797 1023.764349 300.008331l0 0c-0.010711-282.784318-229.113329-512-511.76316-512.007141l0 0C229.359689-211.992859 0.24398 17.224013 0.235648 300.008331L0.235648 300.008331zM166.582865 645.595656C78.161887 557.11636 23.503074 435.005816 23.498314 300.008331l0 0C23.503074 165.001325 78.161887 42.88959 166.582865-45.593276l0 0c88.43883-88.461443 210.492248-143.140489 345.419514-143.144059l0 0c134.933217 0.004761 256.983064 54.682616 345.418324 143.144059l0 0c88.420978 88.482866 143.07384 210.594601 143.079791 345.601607l0 0c-0.005951 134.997485-54.658813 257.108029-143.077411 345.587325l0 0C768.984253 734.054719 646.934406 788.730194 512.001189 788.738525l0 0C377.071543 788.730194 255.021696 734.054719 166.582865 645.595656L166.582865 645.595656zM424.659676 391.877173l338.095333 0c29.334809 0 53.36036-24.02079 53.36036-53.377022l0-197.718372c0-29.366943-24.025551-53.381782-53.36036-53.381782L424.659676 87.399997c-29.378844 0-53.391304 24.01365-53.391304 53.381782L371.268373 338.500151C371.268373 367.855192 395.280832 391.877173 424.659676 391.877173M275.198303 204.796359c-3.482378 1.279411-6.614852 3.26101-9.187955 5.825783l0 0.095212c-4.603499 4.60945-7.455097 10.961278-7.455097 17.937936l0 76.208853 80.737372 0 0 77.120507-80.737372 0 0 23.839888c0 6.946904 2.851599 13.310634 7.455097 17.937936l0 0.074979c4.559463 4.552322 10.914862 7.402731 17.949837 7.402731l302.945453 0c6.965946 0 13.322535-2.867071 17.927224-7.47652l0.069029 0.029754c2.408863-2.435046 4.360708-5.400899 5.656781-8.66548l45.971911 0c-2.089903 15.581439-9.348626 29.606163-19.994514 40.24134l0 0.08093c-12.72746 12.714369-30.277407 20.631244-49.630431 20.631244L283.962565 476.081451c-19.257812 0-36.82085-7.931157-49.582825-20.691942l-0.058317 0.048796c-12.715559-12.715559-20.614582-30.284548-20.614582-49.612578l0-177.168057c0-19.32922 7.899023-36.923203 20.614582-49.637572l0.058317 0.041655c11.744397-11.708692 27.497218-19.339932 44.954333-20.507469l0 0.521286 62.82324 0 0 45.72555L275.198303 204.796359 275.198303 204.796359zM651.17967 281.351545l126.53195 0 0 68.214617L651.17967 349.566163 651.17967 281.351545zM419.448011 146.981269l72.173055 0 0 37.558743-72.173055 0L419.448011 146.981269zM517.866246 146.981269l72.159964 0 0 37.558743-72.159964 0L517.866246 146.981269zM612.570025 146.981269l72.171865 0 0 37.558743-72.171865 0L612.570025 146.981269zM704.78163 146.981269l72.161154 0 0 37.558743-72.161154 0L704.78163 146.981269z"  horiz-adv-x="1024" />

    
    <glyph glyph-name="changjianwenti" unicode="&#58887;" d="M513.92 125.92c-26.56 0-48-21.12-48-47.68 0-26.56 21.44-48 48-48 26.24 0 47.68 21.44 47.68 48C561.6 104.8 540.16 125.92 513.92 125.92zM593.92 289.12c24.32 16 92.8 48.64 92.8 134.08s-71.68 144.32-131.84 156.8c-60.48 12.48-125.44 4.16-171.84-46.72-41.6-45.12-50.24-81.28-50.24-160.32l92.8 0 0 18.24c0 42.24 5.12 86.72 65.28 99.2 32.96 6.4 63.68-3.84 82.24-21.76 20.8-20.48 21.12-66.56-12.48-89.6l-52.16-35.52c-30.72-19.84-40.96-41.6-40.96-73.6l0-107.52 92.8 0 0 72.64C560.32 254.56 569.6 273.12 593.92 289.12zM512-212c282.24 0 512 229.76 512 512S794.24 812 512 812 0 582.24 0 300 229.76-212 512-212zM512 716c229.44 0 416-186.56 416-416s-186.56-416-416-416S96 70.56 96 300 282.56 716 512 716z"  horiz-adv-x="1024" />

    
    <glyph glyph-name="daikuan" unicode="&#58923;" d="M512-160.8C257.911467-160.8 51.2 45.911467 51.2 300S257.911467 760.8 512 760.8 972.8 554.088533 972.8 300 766.088533-160.8 512-160.8zM512 726.666667C276.718933 726.666667 85.333333 535.281067 85.333333 300S276.718933-126.666667 512-126.666667 938.666667 64.718933 938.666667 300 747.281067 726.666667 512 726.666667zM660.5824 209.239467c0 64.9216-44.100267 105.745067-132.369067 122.368-51.6096 10.001067-75.741867 24.9856-72.3968 44.9536 1.6384 23.313067 20.002133 35.771733 54.920533 37.4784 29.969067 0 49.937067-18.363733 59.938133-54.954667l79.940267 24.9856C636.962133 442.506667 601.9072 477.2544 546.133333 489.098667L546.133333 562.212267l-68.266667 0 0-71.099733c-65.194667-10.615467-100.078933-49.5616-104.482133-117.0432-3.3792-64.9216 42.461867-105.745067 137.3184-122.368 43.281067-6.656 64.9216-20.821333 64.9216-42.461867 0-29.969067-20.821333-44.919467-62.429867-44.919467-36.625067-1.672533-60.757333 22.459733-72.430933 72.430933l-77.4144-22.493867c19.456-70.929067 57.787733-111.2064 114.4832-121.719467l0-71.441067 68.266667 0 0 71.236267C619.451733 103.118933 657.646933 142.065067 660.5824 209.239467z"  horiz-adv-x="1024" />

    
    <glyph glyph-name="haibao" unicode="&#58891;" d="M875.894336-35.662853c-18.394952 0-36.786835 0-55.740512 0 0 242.868423 0 485.006206 0 727.526705-205.591425 0-410.619008 0-615.960747 0 0-261.008572 0-521.801227 0-783.109628 1.61887-0.121773 3.247974-0.353041 4.878101-0.353041 222.084051-0.007163 444.168102 0.00307 666.253176 0.014326 0.191358 0 0.379647 0.013303 0.569982 0.021489 0-18.630313 0-37.261649 0-55.895031-242.573711-0.00307-485.147422-0.00307-727.790718-0.00307 0 298.4186 0 596.839247 0 895.412366 242.550175 0 485.169935 0 727.790718 0.00307C875.894336 486.750311 875.894336 225.545264 875.894336-35.662853zM707.531813 244.870402c-130.510426 0-260.638135 0-391.137305 0 0 111.665219 0 222.98456 0 334.788949 130.250506 0 260.508175 0 391.137305 0C707.531813 468.267355 707.531813 356.967456 707.531813 244.870402zM372.100228 300.599657c93.333712 0 186.377828 0 279.536554 0 0 74.736145 0 149.093666 0 223.430722-93.421716 0-186.308243 0-279.536554 0C372.100228 449.433404 372.100228 375.211982 372.100228 300.599657zM707.616748 75.829428c0-18.343787 0-36.34272 0-54.840002-130.303718 0-260.559341 0-391.204843 0 0 18.171871 0 36.305881 0 54.840002C446.6839 75.829428 576.80854 75.829428 707.616748 75.829428zM316.355623 132.881818c0 18.300808 0 36.266995 0 54.767348 130.281205 0 260.501012 0 391.135258 0 0-18.082844 0-36.20662 0-54.767348C577.130881 132.881818 446.909028 132.881818 316.355623 132.881818z"  horiz-adv-x="1024" />

    
    <glyph glyph-name="xinyongqia" unicode="&#58896;" d="M758.505251 508.397331 266.137381 508.397331c-37.135782 0-67.38369-28.989241-67.38369-64.634066l0-314.182632c0-35.649941 30.247908-64.662719 67.38369-64.662719l492.367871 0c37.137829 0 67.384713 29.012777 67.384713 64.662719L825.889965 443.763265C825.889965 479.408089 795.642057 508.397331 758.505251 508.397331L758.505251 508.397331zM774.952852 130.569146c0-8.003278-7.531534-14.719236-16.447601-14.719236L266.137381 115.84991c-9.058306 0-16.395412 6.601348-16.395412 14.719236L249.741969 345.052079l525.217023 0 0-214.482933L774.952852 130.569146zM774.952852 399.284237 249.742992 399.284237l0 44.479027c0 7.594979 7.336082 13.789051 16.395412 13.789051l492.367871 0c8.916067 0 16.45374-6.314823 16.45374-13.789051l0-44.479027L774.952852 399.284237zM300.49591 160.901988l228.043786 0c15.717983 0 28.404933 10.867512 28.404933 24.369014 0 13.44522-12.68695 24.375154-28.404933 24.375154l-228.043786 0c-15.717983 0-28.456099-10.929934-28.456099-24.375154C272.039811 171.7695 284.777927 160.901988 300.49591 160.901988L300.49591 160.901988zM615.413276 160.901988l101.978603 0c13.650905 0 24.718985 10.867512 24.718985 24.369014 0 13.44522-11.06808 24.375154-24.718985 24.375154l-101.978603 0c-13.673417 0-24.718985-10.929934-24.718985-24.375154C590.694291 171.7695 601.739858 160.901988 615.413276 160.901988L615.413276 160.901988zM512.322339 812c-282.126542 0-511.685845-229.559303-511.685845-511.656169 0-282.155195 229.558279-511.685845 511.685845-511.685845 282.125519 0 511.656169 229.53065 511.656169 511.685845C1023.978509 582.446837 794.447858 812 512.322339 812L512.322339 812zM512.322339-145.50147c-245.834988 0-445.851441 199.982684-445.851441 445.845301 0 245.805312 200.016453 445.822788 445.851441 445.822788 245.832941 0 445.821765-200.017476 445.821765-445.822788C958.137964 54.481214 758.155281-145.50147 512.322339-145.50147L512.322339-145.50147zM512.322339-145.50147"  horiz-adv-x="1024" />

    
    <glyph glyph-name="iconfuben04" unicode="&#58969;" d="M462.054983 492.549388c-75.077929 0-135.958508-60.881602-135.958508-135.960555s60.880579-135.961578 135.958508-135.961578c75.080999 0 135.962601 60.881602 135.962601 135.961578S537.135982 492.549388 462.054983 492.549388zM510.185166 812c-281.785781 0-510.164189-228.405013-510.164189-510.164189s228.378407-510.165212 510.164189-510.165212c281.786805 0 510.165212 228.405013 510.165212 510.165212S791.971971 812 510.185166 812zM712.057897 27.349273l-140.046616 139.996474c-32.435737-18.910699-69.701478-30.516014-109.956298-30.516014-121.365138 0-219.758076 98.398054-219.758076 219.759099 0 121.363092 98.392938 219.759099 219.758076 219.759099 121.363092 0 219.762169-98.396008 219.762169-219.759099 0-47.230698-15.19405-90.724281-40.554648-126.543068l136.759757-136.786363L712.057897 27.349273z"  horiz-adv-x="1024" />

    
    <glyph glyph-name="dayuhao" unicode="&#59063;" d="M744.909096 386.153036c-0.429789 4.851495-2.498914 9.586332-6.221702 13.298887L313.160861 825.010179c-8.40646 8.396227-22.008246 8.396227-30.393217 0-8.40646-8.396227-8.40646-21.998013 0-30.394241l410.499281-410.528957-410.499281-410.527934c-8.40646-8.397251-8.40646-21.999037 0-30.394241 8.40646-8.397251 21.986757-8.397251 30.393217 0L738.728326 368.765017C743.4867 373.521345 745.541499 379.947707 744.909096 386.153036z"  horiz-adv-x="1024" />

    
    <glyph glyph-name="qiandai" unicode="&#58881;" d="M808.830429 520.501884c-22.447245 23.633257-46.422286 44.726667-70.4137 63.068408-3.593851 2.746554-6.350638 4.663206-9.54233 7.001461 44.561915 15.313777 75.736938 51.958372 75.736938 95.337345 0 58.413388-55.44887 103.107309-121.299647 103.107309-15.158235 0-29.124318-2.844791-41.631166-7.609305-5.810333-2.214435-10.169617-4.455475-13.776771-6.548136-2.299369-0.968048-7.213285 0.115634-8.558933 1.796926l-0.058328-0.047072c-5.028527 7.528464-12.594853 16.857946-23.608697 26.420743-20.963451 18.203594-45.77044 29.441543-74.096579 29.441543S468.449112 821.233156 447.485661 803.029562c-10.754948-9.338692-18.136056-18.402115-23.181979-25.846668l-0.031722 0.026606c-1.90335-2.254344-6.846942-3.432169-8.574283-2.605338-3.65832 2.159176-8.165983 4.498454-14.216793 6.803963-12.504802 4.764514-26.471908 7.609305-41.631166 7.609305-65.848731 0-121.2976-44.694945-121.2976-103.107309 0-37.092803 22.881127-69.195965 57.314357-87.366813-3.430122-2.431376-7.079232-5.068436-11.012821-8.004301-23.961738-17.879206-47.89994-38.723953-70.307276-62.420655-65.097624-68.844971-104.622826-147.569964-104.622826-234.971569 0-242.35984 180.616614-357.616864 398.180721-357.616864 91.178629 0 180.314739 18.186198 252.438383 61.133336 97.869005 58.279335 153.534815 156.195412 153.534815 296.483528C914.077471 375.293711 874.28928 451.591421 808.830429 520.501884zM508.10325-10.34537c-191.501522 0-344.270904 97.485265-344.270904 303.491129 0 71.53422 33.386388 138.034796 89.810469 197.706851 20.125363 21.284769 41.757033 40.11872 63.368236 56.243979 7.532557 5.619998 14.500249 10.484795 20.708648 14.56574 3.617387 2.378164 6.100952 3.921309 7.256264 4.603855 30.398334 20.082384 27.513634 55.470359-2.227738 70.570265 0.075725 0.226151 0.096191 0.324388 0.075725 0.334621-0.11154 0.053212-0.11154 0.053212-0.179079 0.084934-0.151449 0.071631-0.151449 0.071631-0.348947 0.163729-0.469698 0.221034-0.469698 0.221034-1.036609 0.485047l0 0.002047c-1.072425 0.502443-1.072425 0.502443-1.430582 0.670266l-0.002047-0.00614c-0.319272 0.149403-0.332575 0.156566-0.760317 0.357134l-0.594541 0.225127c-0.045025 0.017396-0.073678 0.047072-0.118704 0.064468l-0.007163-0.017396-3.130294 1.181919c-26.270317 7.680936-42.751686 26.306132-42.751686 45.526893 0 25.582655 29.028127 48.981574 67.387783 48.981574 8.249895 0 15.823384-1.542122 22.500457-4.087085 3.696182-1.408069 5.978155-2.635013 6.520507-3.001357l3.27765-1.89107c24.38027-11.879562 55.783491-4.391007 73.252351 16.304338l2.279926 3.131317c2.252297 3.609201 7.492648 10.163477 15.07023 16.744359 11.926634 10.355859 24.945135 16.253172 38.8314 16.253172 13.884218 0 26.90272-5.897314 38.829354-16.253172 7.577582-6.580882 12.81998-13.135158 15.07023-16.744359l1.827625-2.578732c17.014512-21.274536 48.715515-28.355815 73.160253-17.115819l3.823072 2.149966c0.541329 0.366344 2.826372 1.593288 6.522554 3.001357 6.677073 2.544963 14.250562 4.087085 22.49841 4.087085 38.359656 0 67.388806-23.39892 67.388806-48.981574 0-19.22076-16.482393-37.845956-42.751686-45.526893l-3.850701-1.453095c-7.571443-3.543709-12.58155-5.208629-14.44499-5.615904-37.801954-11.691273-44.226271-50.268894-13.602809-71.828932 2.512217-1.611707 5.052063-3.2623 8.732895-5.77247 6.293333-4.29277 13.350053-9.374508 20.974707-15.204283 21.852704-16.706497 43.720757-35.9467 64.058968-57.357336 56.789401-59.787688 90.349751-124.140345 90.349751-190.002378C860.166631 76.481138 714.355731-10.34537 508.10325-10.34537zM620.417245 308.434977c12.406564 0 22.462594 10.281157 22.462594 22.962991s-10.05603 22.962991-22.462594 22.962991l-91.777263 0 85.198427 87.093591c8.772804 8.967232 8.772804 23.506367 0 32.473599-8.772804 8.968256-22.994714 8.968256-31.767518 0l-73.967642-75.612095-73.966619 75.612095c-8.772804 8.968256-22.994714 8.968256-31.767518 0-8.772804-8.967232-8.772804-23.506367 0-32.473599l85.198427-87.093591-91.777263 0c-12.406564 0-22.462594-10.281157-22.462594-22.962991s10.05603-22.962991 22.462594-22.962991l89.849354 0 0-22.962991-89.849354 0c-12.406564 0-22.462594-10.281157-22.462594-22.962991 0-12.681834 10.05603-22.962991 22.462594-22.962991l89.849354 0 0-66.135256c0-9.700943 10.058077-17.564028 22.462594-17.564028 12.406564 0 22.462594 7.862062 22.462594 17.564028l0 66.135256 89.851401 0c12.406564 0 22.462594 10.281157 22.462594 22.962991 0 12.681834-10.05603 22.962991-22.462594 22.962991l-89.851401 0 0 22.962991L620.417245 308.434977z"  horiz-adv-x="1024" />

    
    <glyph glyph-name="zhanghu" unicode="&#58921;" d="M72.58319 365.02497l0.047838 0c10.596848 0 19.181899 8.451879 19.205172 18.862545 0.049131 24.157091 2.212202 48.425374 6.493091 72.215273C117.92622 565.458747 179.615756 660.746343 272.049857 724.441212c92.435394 63.698747 204.529778 88.175192 315.666101 68.876929 118.244848-20.517495 220.373333-89.138424 283.907879-188.712081L736.313614 618.627879c-10.453333 0.991677-19.987394-6.445253-21.096727-16.809374-1.126141-10.382222 6.517657-19.661576 17.089939-20.769616l174.616566-18.073859c0.67103-0.069818 1.36404-0.095677 2.027313-0.095677 8.728566 0 16.465455 5.846626 18.629818 14.325657l42.44299 167.663192c2.556121 10.131394-3.712 20.377859-14.00501 22.893899-10.316283 2.597495-20.723071-3.642182-23.279192-13.774869l-31.343192-123.889778c-69.516929 105.906424-179.982222 178.40097-306.980202 200.458343-121.265131 21.025616-243.518061-5.66303-344.358788-75.138586C149.221574 685.939071 81.909089 581.97204 60.539554 462.707071c-4.672646-25.929697-7.043879-52.433455-7.091717-78.756202C53.376725 373.498828 61.969533 365.049535 72.58319 365.02497L72.58319 365.02497zM951.369129 402.97503C951.344564 402.97503 951.344564 402.97503 951.369129 402.97503c-10.620121 0-19.228444-8.449293-19.228444-18.879354-0.024566-23.998061-2.187636-48.312889-6.469818-72.215273-19.620202-109.361131-81.31103-204.672-173.745131-268.364283-92.434101-63.694869-204.554343-88.149333-315.666101-68.854949C318.013493-4.822626 215.861735 63.798303 152.32719 163.37196l135.333495-14.024404c10.364121-0.991677 19.987394 6.44396 21.09802 16.833939 1.126141 10.387394-6.540929 19.66804-17.089939 20.772202L117.054786 205.031434c-9.287111 0.824889-18.310465-5.092848-20.635152-14.231273l-42.44299-167.642505c-2.556121-10.109414 3.710707-20.379152 13.981737-22.887434 1.58901-0.391758 3.130182-0.558545 4.672646-0.558545 8.616081 0 16.442182 5.734141 18.631111 14.326949L122.622139 137.903838c69.522101-105.903838 179.987394-178.391919 306.985374-200.432485 27.033859-4.695919 54.110384-7.027071 81.008485-7.027071 93.703758 0 185.005253 28.141899 263.368404 82.142384 100.84202 69.47297 168.128646 173.445172 189.516283 292.752808 4.679111 26.06804 7.050343 52.547232 7.074909 78.731636C970.551028 394.501172 961.95822 402.97503 951.369129 402.97503L951.369129 402.97503zM669.281695 403.413333c12.202667 0 22.128485 9.534061 22.128485 21.299717 0 11.769535-9.902545 21.304889-22.128485 21.304889l-91.402343 0 66.735838 115.457293c5.94101 10.29301 2.098424 23.261091-8.568242 28.996525-10.661495 5.732848-24.150626 2.045414-30.091636-8.272162l-78.713535-136.204929-28.135434 0-78.712242 136.204929c-5.94101 10.294303-19.456 14.006303-30.094222 8.272162-10.666667-5.735434-14.50796-18.702222-8.566949-28.996525l66.737131-115.457293L351.79515 446.017939c-12.202667 0-22.128485-9.535354-22.128485-21.304889 0-11.765657 9.903838-21.299717 22.128485-21.299717l136.626424 0 0-83.776646L351.79515 319.636687c-12.202667 0-22.128485-9.553455-22.128485-21.32299 0-11.764364 9.903838-21.297131 22.128485-21.297131l136.626424 0 0-99.022869c0-11.765657 9.901253-21.32299 22.128485-21.32299 12.202667 0 22.128485 9.558626 22.128485 21.32299l0 99.022869L669.299796 277.016566c12.207838 0 22.133657 9.532768 22.133657 21.297131 0 11.770828-9.901253 21.32299-22.133657 21.32299L532.678544 319.636687l0 83.776646L669.281695 403.413333 669.281695 403.413333zM669.281695 403.413333"  horiz-adv-x="1024" />

    
    <glyph glyph-name="four-circle-copy" unicode="&#58930;" d="M115.392 441.238c25.1 175.476 163.893 314.271 339.37 339.372l-0.002 115.39c-238.777-26.399-428.363-215.985-454.759-454.759l115.392-0.002zM569.238 780.61c175.478-25.101 314.271-163.893 339.373-339.372h115.389c-26.396 238.777-215.984 428.363-454.762 454.762v-115.39zM454.762-12.611c-175.477 25.1-314.271 163.893-339.374 339.371h-115.388c26.397-238.777 215.985-428.364 454.762-454.759v115.389zM908.61 326.759c-25.104-175.478-163.897-314.271-339.372-339.37v-115.388c238.775 26.396 428.365 215.979 454.761 454.758h-115.388z"  horiz-adv-x="1024" />

    
    <glyph glyph-name="qiandai1" unicode="&#58958;" d="M594.85608 284.588873c9.009188 0 16.309454 7.302313 16.309454 16.312524 0 9.009188-7.300266 16.33606-16.309454 16.33606l-42.293245 0 46.12348 81.968873c4.505617 7.819083 1.825578 17.787108-5.980201 22.290679-7.791453 4.50664-17.762549 1.838881-22.265096-5.955642l-55.532781-98.30391-2.808976 0-55.535851 98.30391c-4.503571 7.794523-14.470573 10.462283-22.277376 5.955642-7.7935-4.503571-10.470469-14.470573-5.966898-22.290679l46.122457-81.968873-45.047985 0c-9.009188 0-16.309454-7.328919-16.309454-16.33606 0-9.010211 7.300266-16.312524 16.309454-16.312524l66.641793 0 0-20.710694-66.641793 0c-9.009188 0-16.309454-7.315616-16.309454-16.325827 0-9.009188 7.300266-16.322757 16.309454-16.322757l66.641793 0 0-42.823318c0-9.009188 7.299243-16.325827 16.309454-16.325827 8.996908 0 16.296151 7.316639 16.296151 16.325827l0 42.823318 66.216097 0c9.009188 0 16.309454 7.312546 16.309454 16.322757 0 9.010211-7.300266 16.325827-16.309454 16.325827l-66.216097 0 0 20.710694L594.85608 284.588873zM824.695768 830.709995 199.303208 830.709995c-73.706699 0-134.013203-60.305481-134.013203-134.013203L65.290005 71.304232c0-73.706699 60.306504-134.013203 134.013203-134.013203l625.39256 0c73.706699 0 134.013203 60.306504 134.013203 134.013203L958.708971 696.696792C958.708971 770.404514 898.402467 830.709995 824.695768 830.709995zM421.197948 648.732383c39.871079-5.486968 56.07718-30.758538 88.478124-30.758538 31.612998 0 42.152029 32.144094 86.135776 30.758538 44.00012-1.37123 46.577828-20.841677 46.577828-46.574758 0 0-30.226418-85.932138-69.851904-85.932138L444.485327 516.225487c-39.636742 0-69.851904 85.930091-69.851904 85.932138C374.633423 627.889683 381.339148 654.246981 421.197948 648.732383zM695.930079 118.529813 328.071967 118.529813c-38.576597 0-69.851904 38.757722-69.851904 77.348646 0 0 36.726459 293.78507 186.265264 293.78507l135.041626 0c149.516292 0 186.251961-293.78814 186.251961-293.78507C765.779937 157.287535 734.505653 118.529813 695.930079 118.529813z"  horiz-adv-x="1024" />

    
    <glyph glyph-name="rengezhongxin" unicode="&#58883;" d="M875.859032 21.405775c0 3.480264-0.64366 6.779404-1.554402 9.967002-17.210987 129.158638-101.601003 237.046834-217.238696 286.792818 67.214844 46.028313 111.335714 123.316583 111.335714 210.931037 0 141.110855-114.391307 255.503185-255.503185 255.503185-141.109832 0-255.501138-114.391307-255.501138-255.503185 0-87.648223 44.152593-164.962076 111.409392-210.984249-114.538663-49.321312-198.413955-155.690922-216.660528-283.262412-1.659803-4.166903-2.63399-8.6848-2.63399-13.443174l0.333598-3.38305c0-20.119223 16.310477-36.431747 36.430724-36.431747 20.120246 0 36.431747 16.312524 36.431747 36.431747l-0.044002 0.443092 0.73985 0C240.405325 157.685601 355.38094 266.632919 497.329882 274.113287c5.15337-0.310062 10.336416-0.51677 15.568581-0.51677 5.243421 0 10.4367 0.206708 15.601326 0.518816 141.964292-7.463995 256.957303-116.418476 273.959535-255.649518l0.826831 0 0.044002-0.443092c0-20.119223 16.311501-36.431747 36.431747-36.431747s36.431747 16.312524 36.431747 36.431747L875.859032 21.405775zM529.185404 347.347219c-5.372358 0.234337-10.761088 0.409322-16.190751 0.409322-5.502317 0-10.962679-0.173962-16.404622-0.414439-93.169983 8.232498-166.257581 86.373183-166.257581 181.680852 0 100.794637 81.70793 182.503591 182.501544 182.503591 100.793614 0 182.501544-81.708953 182.501544-182.503591C695.336562 433.751101 622.306268 355.628836 529.185404 347.347219z"  horiz-adv-x="1024" />

    
    <glyph glyph-name="2" unicode="&#58890;" d="M915.0464 813.6704 857.7024 867.5328 493.7728 525.312 125.952 871.2192 68.8128 817.5616 416.5632 490.496 190.2592 490.496 190.2592 414.3104 433.152 414.3104 433.152 198.656 190.2592 198.656 190.2592 122.4704 433.152 122.4704 433.152-80.4864 554.5984-80.4864 554.5984 122.4704 797.4912 122.4704 797.4912 198.656 554.5984 198.656 554.5984 414.3104 797.4912 414.3104 797.4912 490.496 571.392 490.496Z"  horiz-adv-x="1024" />

    
    <glyph glyph-name="renwode" unicode="&#58886;" d="M793.07234 52.702088l-562.273697 0c0 115.223461 0 230.446922 160.327819 291.012706 73.774552-46.681219 167.833267-46.681219 241.618058 0C793.07234 283.147986 793.07234 167.925549 793.07234 52.702088zM511.929348 715.290745c99.813232 0 180.735878-80.901143 180.735878-180.704136 0-99.792753-80.921622-180.704136-180.735878-180.704136-99.802992 0-180.724614 80.912407-180.724614 180.704136C331.205758 634.389601 412.12738 715.290745 511.929348 715.290745z"  horiz-adv-x="1024" />

    
    <glyph glyph-name="wsmp-withdrawals" unicode="&#58904;" d="M996.397 544.187c-10.888 10.905-25.386 14.157-40.792 14.157h-118.421l-48.65 115.398h70.907c5.136 0 9.96 0.752 13.599-2.887 3.633-3.633 5.634-5.711 5.634-10.847v-57.697c0-10.617 8.599-19.233 19.236-19.233 10.633 0 19.227 8.616 19.227 19.233v57.697c0 15.424-5.998 27.157-16.904 38.046-10.888 10.905-25.386 14.152-40.792 14.152h-87.121l-23.353 55.395c-6.157 14.598-18.213 26.137-33.082 31.676-14.908 5.535-31.583 4.631-45.757-2.423l-171.557-85.213c-1.463 0.356-2.985 0.566-4.555 0.566h-307.728c-25.679 0-49.831-7.942-68.009-26.113-18.154-18.161-28.155-40.26-28.155-65.933 0-1.375 0.042-2.749 0.099-4.12h-0.099v-552.254c0-25.692 10.001-52.601 28.155-70.738 18.177-18.171 42.33-30.924 68.009-30.924h769.315c15.407 0 29.904 8.768 40.792 19.657 10.889 10.888 16.904 28.137 16.904 43.543v480.822c0 15.427-5.998 27.161-16.904 38.041zM687.267 762.405c4.807 2.383 10.231 2.653 15.232 0.81 5.025-1.866 8.946-5.641 11.023-10.558l81.907-194.312h-518.999l410.839 204.061zM145.48 659.588c10.905 10.905 25.403 14.155 40.81 14.155h235.989l-225.314-111.917 1.73-3.48h-12.405c-15.407 0-29.904 8.059-40.792 18.946-10.905 10.905-16.904 27.445-16.904 42.869 0 15.424 5.998 28.537 16.885 39.426zM974.84 231.384h-211.563c-15.426 0-29.904 8.057-40.792 18.988-10.905 10.864-16.904 27.403-16.904 42.829s5.998 28.542 16.922 39.43c10.87 10.899 25.349 14.152 40.775 14.152h211.564v-115.399zM763.276 385.248c-25.698 0-49.85-7.94-67.986-26.118-18.16-18.135-28.179-40.235-28.179-65.93s10.020-51.217 28.155-69.353c18.16-18.176 42.312-30.926 68.009-30.926h211.563v-167.595c0-5.136-2.002-12.713-5.634-16.347-3.639-3.637-8.464-8.388-13.599-8.388h-769.315c-15.407 0-29.904 8.752-40.81 19.634-10.888 10.888-16.885 28.12-16.885 43.544v477.838c16.565-13.125 36.612-21.732 57.696-21.732h769.315c5.136 0 9.96 0.752 13.599-2.882 3.633-3.633 5.634-5.711 5.634-10.847v-120.899h-211.564zM824.85 545.571l-103.646 232.759-516.162-232.759zM980.649 359.614h-240.411l-45.077-43.074 6.010-84.144 61.105-25.042h186.319l45.078 10.018z"  horiz-adv-x="1121" />

    
    <glyph glyph-name="search1" unicode="&#59176;" d="M430.72 113.6C229.44 113.6 66.272 273.92 66.272 472 66.272 670.08 229.44 830.72 430.72 830.72 632 830.72 795.2 670.08 795.2 472 795.2 273.92 632 113.6 430.72 113.6L430.72 113.6ZM1014.016-72 749.728 188.16C818.912 263.36 861.44 362.56 861.44 472 861.44 706.24 668.608 896 430.72 896 192.832 896 0 706.24 0 472 0 238.08 192.832 48.32 430.72 48.32 533.504 48.32 627.776 83.84 701.824 143.04L967.168-118.08C980.128-130.88 1001.088-130.88 1014.016-118.08 1026.976-105.6 1026.976-84.8 1014.016-72L1014.016-72Z"  horiz-adv-x="1024" />

    
    <glyph glyph-name="xia" unicode="&#58998;" d="M512.979304 230.408903 123.706463 619.677651c-12.970406 12.973476-32.434713 12.973476-45.410236 0-12.973476-12.975523-12.973476-32.43983 0-45.414329l408.733055-408.728962c6.489808-6.489808 19.465331-12.979616 25.954115-12.979616 6.484691 0 19.460214 0 25.950022 6.489808l408.728962 415.21877c12.975523 12.973476 12.975523 32.438806 0 45.414329-12.974499 12.973476-32.43983 12.973476-45.414329 0L512.979304 230.408903 512.979304 230.408903 512.979304 230.408903zM512.979304 230.408903"  horiz-adv-x="1024" />

    
    <glyph glyph-name="kehu" unicode="&#58911;" d="M630.038 411.763c44.668 33.503 74.453 89.346 74.453 148.906 0 104.229-85.621 189.851-189.855 189.851-104.231 0-189.851-85.622-189.851-189.851 0-59.562 29.778-115.403 74.451-148.906-119.123-48.395-201.021-160.073-201.021-294.085v-63.285c0-18.613 14.893-33.502 33.507-33.502h573.281c18.612 0 33.502 14.889 33.502 33.502v63.285c-7.444 130.288-93.064 245.69-208.466 294.085v0 0 0zM384.346 560.67c0 70.728 55.838 126.566 126.571 126.566 70.726 0 126.565-55.838 126.565-126.566 0-70.732-55.838-126.571-126.565-126.571-70.733 0-126.571 55.84-126.571 126.571v0 0 0zM767.775 84.172h-513.722v33.506c0 141.459 115.404 253.136 256.865 253.136 141.459 0 256.858-115.4 256.858-253.136l0-33.506h-0.001zM272.669 381.98h7.444c14.889 3.724 22.336 14.894 22.336 29.783s-7.447 26.061-22.336 29.779c-33.503 14.893-55.84 48.395-55.84 85.621 0 44.671 26.061 78.173 67.009 93.067 7.443 22.333 18.612 40.945 29.779 55.839 0 3.724 3.724 7.443 7.447 11.165h-7.447c-89.341 0-160.073-70.728-160.073-160.072 0-40.95 14.888-78.174 40.949-107.954-81.897-40.948-137.735-126.568-137.735-223.356v-48.395c0-18.613 14.889-33.502 33.503-33.502h55.842c0 22.336 3.72 44.671 7.443 63.285h-33.503v18.612c0 89.341 59.563 163.797 145.183 186.127v0 0 0zM819.89 422.93c26.061 29.783 40.95 67.009 40.95 107.958 0 85.62-70.727 160.072-160.072 160.072h-7.447c3.724-7.447 7.447-11.165 7.447-14.889 11.17-18.613 22.335-37.225 29.782-55.839 37.226-11.17 67.005-48.395 67.005-89.344 0-37.225-22.337-70.728-55.838-85.621-11.167-3.724-22.338-14.89-22.338-29.779s11.17-26.058 22.338-29.782h7.447c85.617-22.337 145.178-96.787 145.178-182.408v-18.613h-33.503c3.724-22.336 7.447-40.949 7.447-63.28h55.838c18.613 0 33.502 14.889 33.502 33.502v48.391c-0 89.345-55.838 174.965-137.736 219.633v0 0 0zM819.89 422.93z"  horiz-adv-x="1024" />

    
    <glyph glyph-name="close48" unicode="&#59148;" d="M896.128 731.84 548.458667 384.170667l347.456-347.477333-36.650667-36.629333L511.808 347.541333 164.138667-0.128l-36.245333 36.245333 347.669333 347.669333L127.872 731.477333l36.650667 36.629333 347.669333-347.669333L859.861333 768.106667 896.128 731.84z"  horiz-adv-x="1024" />

    
    <glyph glyph-name="shouji" unicode="&#58919;" d="M720.129736-63.855074l-416.260495 0c-61.306274 0-111.005186 50.116421-111.005186 111.964024L192.864054 719.89105c0 61.847603 49.697889 111.964024 111.005186 111.964024l416.260495 0c61.306274 0 111.005186-50.116421 111.005186-111.964024l0-671.7821C831.133899-13.739676 781.43601-63.855074 720.129736-63.855074L720.129736-63.855074zM775.623631 719.89105c0 30.905894-24.848944 55.982012-55.493895 55.982012l-416.260495 0c-30.644951 0-55.502082-25.076118-55.502082-55.982012l0-27.991518 527.256472 0L775.623631 719.89105 775.623631 719.89105zM775.623631 635.918543 248.367159 635.918543 248.367159 188.933279l527.256472 0L775.623631 635.918543 775.623631 635.918543zM775.623631 132.951267 248.367159 132.951267l0-84.842317c0-30.925337 24.857131-55.982012 55.502082-55.982012l416.260495 0c30.644951 0 55.493895 25.056676 55.493895 55.982012L775.623631 132.951267 775.623631 132.951267zM512.001535 20.117432c-22.980387 0-41.614793 18.797112-41.614793 41.98523 0 23.190165 18.634406 41.989323 41.614793 41.989323 22.979364 0 41.612747-18.797112 41.612747-41.989323C553.614282 38.914544 534.980899 20.117432 512.001535 20.117432L512.001535 20.117432z"  horiz-adv-x="1024" />

    
    <glyph glyph-name="wodezhanghu" unicode="&#59019;" d="M538.863834 831.910333c-125.323287 0-226.917126-102.029768-226.917126-227.89336 0-125.864616 101.593839-227.89643 226.917126-227.89643 125.32431 0 226.916103 102.031814 226.916103 227.89643C765.779937 729.879542 664.188144 831.910333 538.863834 831.910333L538.863834 831.910333zM538.863834 424.905642c-98.495268 0-178.340781 80.189344-178.340781 179.111331 0 98.917894 79.845513 179.108261 178.340781 179.108261 98.496292 0 178.341804-80.189344 178.341804-179.108261C717.205639 505.094986 637.360126 424.905642 538.863834 424.905642L538.863834 424.905642zM538.863834 407.080671c-248.5314 0-418.674475-202.283076-418.674475-438.896028 0-17.285688 14.522762-31.30089 32.43983-31.30089 17.915022 0 32.438806 14.014178 32.438806 31.30089l0.252757 0c0 210.129788 152.97302 378.071731 353.543082 378.071731 199.603037 0 353.512383-168.284751 353.993337-377.095497-0.011256-0.342808-0.196475-0.630357-0.196475-0.976234 0-17.285688 14.520715-31.30089 32.437783-31.30089 17.918092 0 32.437783 14.014178 32.437783 31.30089C957.537286 204.798619 794.97077 407.080671 538.863834 407.080671L538.863834 407.080671zM257.589706 570.785104c-4.419659 55.108109 12.95915 106.773815 44.633546 146.761552l-0.094144 0.077771c3.517103 4.504594 5.630231 10.149151 5.630231 16.299221 0 14.685467-11.943007 26.588565-26.673499 26.588565-9.946536 0-18.6078-5.437849-23.193235-13.484106-37.878702-49.669236-58.518788-112.988354-53.109592-180.448792 4.293793-53.56394 18.022469-96.372931 44.962028-132.400472C157.388587 390.127558 98.444103 318.044846 65.669652 233.02345c-2.003634-4.078899-3.157923-8.646937-3.157923-13.493316 0-16.997116 13.821797-30.773887 30.873148-30.773887 12.573363 0 23.37129 7.503904 28.184923 18.253736l0.154519-0.066515c15.181771 40.596604 36.490076 77.592192 65.667605 108.770286 46.968731 50.184983 99.966783 73.581856 162.598238 97.645924C298.749128 447.602573 262.925225 504.233362 257.589706 570.785104L257.589706 570.785104z"  horiz-adv-x="1024" />

    
    <glyph glyph-name="tijianxuzhi" unicode="&#59057;" d="M511.487835 832.293049c-247.27171 0-447.724091-200.453405-447.724091-447.724091 0-247.272733 200.453405-447.725114 447.724091-447.725114 247.272733 0 447.725114 200.452381 447.725115 447.725114 0 247.27171-200.453405 447.724091-447.725115 447.724091z m271.391037-719.116151c-35.268248-35.268248-76.320223-62.949704-122.015961-82.276888-47.275723-19.99745-97.53336-30.135344-149.375076-30.135344s-102.097306 10.137895-149.374052 30.135344c-45.695738 19.328207-86.747713 47.00864-122.016985 82.276888-35.268248 35.269271-62.951751 76.32227-82.278935 122.016985-19.996426 47.276746-30.134321 97.534384-30.13432 149.375075s10.138918 102.098329 30.13432 149.374053c19.327184 45.695738 47.009663 86.747713 82.278935 122.015961 35.268248 35.268248 76.321246 62.951751 122.016985 82.278935 47.275723 19.996426 97.532337 30.135344 149.374052 30.135344s102.098329-10.138918 149.375076-30.135344c45.695738-19.327184 86.747713-47.009663 122.015961-82.278935 35.269271-35.268248 62.951751-76.321246 82.277912-122.015961 19.996426-47.275723 30.135344-97.53336 30.135344-149.374053s-10.138918-102.098329-30.135344-149.375075c-19.327184-45.694715-47.009663-86.748736-82.277912-122.016985zM511.487835 593.419614m-56.995085 0a56.995085 56.995085 0 1 1 113.990171 0 56.995085 56.995085 0 1 1-113.990171 0ZM553.351292 488.535845h-50.211589l-82.97376-50.300616 21.40552-56.19486 28.052916 13.985525v-227.685629H425.023578v-52.52733H597.953116v52.52733h-44.601824z"  horiz-adv-x="1024" />

    
    <glyph glyph-name="qianbao" unicode="&#58897;" d="M960.719256 482.076736c0 62.908772-48.130184 115.115807-109.389386 121.625058-0.353041 0.037862-7.346315 0.074701-19.635199 0.110517L831.694671 712.166111l-96.623641 0c-5.844102 60.902068-58.393945 108.971877-121.821533 108.971877L187.076234 821.137988c-67.303872 0-122.372072-54.123688-122.372072-120.273271 0-0.600681 0.014326-1.196245 0.023536-1.794879l-0.023536 0.01535 0-55.785537L64.704163 69.257619c0-67.274196 55.04364-122.314767 122.317837-122.314767l651.381467 0c67.275219 0 122.317837 55.04057 122.317837 122.314767L960.719256 482.076736zM770.119267 603.934085c-136.700405 0.203638-409.315316 0.367367-526.911618 0.430812 0.677429 14.592346 2.647293 32.180933 7.598049 37.835723 1.817392 2.075265 7.347339 8.391111 25.622564 8.391111l493.691005 0L770.119267 603.934085zM125.888663 700.864718c0 15.462157 6.271844 30.140461 17.660218 41.335431 11.665691 11.467169 27.123754 17.779945 43.527352 17.779945l426.173263 0c16.402575 0 31.861662-6.313799 43.527352-17.779945 8.567119-8.420787 14.236236-18.816554 16.520255-30.033014l-396.868843 0c-38.188764 0-60.20622-15.990183-71.949682-29.404704-22.985504-26.253944-23.752983-63.065338-22.930245-78.114079-14.325263 1.254573-27.653827 7.360641-37.999452 17.529235-7.612375 7.482415-14.965853 16.522302-17.660218 26.312272C124.550179 653.344424 125.88764 695.738977 125.888663 700.864718zM899.563408 69.257619c-0.002047-16.200984-6.401804-31.521924-18.020422-43.141566-11.618619-11.618619-26.938536-18.017352-43.139519-18.017352L187.020976 8.098701c-16.202007 0-31.521924 6.398734-43.140543 18.017352-11.619642 11.619642-18.017352 26.940582-18.017352 43.141566L125.863081 559.478594c18.017352-10.30981 38.916335-16.232706 61.156872-16.242939l0.002047-0.001023 0.050142 0c0.002047 0 0.002047 0 0.004093 0l531.22997 0 120.099309 0c16.19996 0 31.518854-6.399757 43.136449-18.017352 11.620665-11.618619 18.020422-26.940582 18.020422-43.140543l0-116.663046L782.817474 365.41369c-33.637098 0-61.160965-27.52182-61.160965-61.158918l0-56.847729c0-33.638121 27.522844-61.158918 61.160965-61.158918l116.745934 0L899.563408 69.257619zM899.563408 247.407042L782.924921 247.407042c-0.038886 0.031722-0.076748 0.069585-0.11154 0.10847l0 56.629765c0.031722 0.038886 0.072655 0.076748 0.11154 0.10847l116.638487 0c0.038886-0.028653-0.031722-0.069585 0-0.10847l0-56.629765C899.531686 247.47765 899.602294 247.439788 899.563408 247.407042z"  horiz-adv-x="1024" />

    
    <glyph glyph-name="gengduo" unicode="&#59179;" d="M168.457 488.441c-57.676 0-104.453-46.738-104.453-104.453 0-57.695 46.758-104.433 104.453-104.433S272.91 326.293 272.91 383.988c-0.02 57.715-46.777 104.453-104.453 104.453z m333.125 0c-57.676 0-104.453-46.738-104.453-104.453 0-57.695 46.758-104.433 104.453-104.433s104.453 46.738 104.453 104.433c0 57.715-46.758 104.453-104.453 104.453z m353.965 0c-57.695 0-104.453-46.738-104.453-104.453 0-57.695 46.758-104.433 104.453-104.433S960 326.293 960 383.988c0 57.715-46.777 104.453-104.453 104.453z"  horiz-adv-x="1024" />

    
    <glyph glyph-name="kefu" unicode="&#58947;" d="M541.775032-115.160615c14.441026-8.402051 30.746256-12.839385 47.182769-12.839385 8.270769 0 16.489026 1.129026 24.497231 3.308308a93.997949 93.997949 0 0 1 56.97641 43.690666l0.603897 1.155282a96.361026 96.361026 0 0 1 9.478565 72.677744 95.153231 95.153231 0 0 1-37.993026 54.403282l-7.325539 4.516103a93.971692 93.971692 0 0 1-70.787282 9.084718 94.391795 94.391795 0 0 1-56.687589-43.428103l-0.787693-1.417846c-3.859692-6.826667-6.905436-14.020923-9.005948-21.398975l-1.942975-6.852923h-191.514256l-1.890462-0.105025-0.341333 0.026256c-55.243487 1.601641-135.53559 17.145436-195.163897 56.004923-44.583385 29.013333-68.161641 66.980103-68.161641 109.830564v244.81477c0 10.082462 4.096 20.007385 11.18523 27.201641a37.599179 37.599179 0 0 0 26.939077 11.421538h78.532923c9.977436 0 19.482256-4.017231 26.729026-11.290256l1.601641-1.575385c6.354051-7.194256 9.846154-16.331487 9.846154-25.757538v-247.965539c0-10.89641 8.717128-19.744821 19.429743-19.74482a19.587282 19.587282 0 0 1 19.403488 19.74482v247.965539c0 19.639795-7.483077 38.570667-21.057641 53.248l-0.551385 0.682666a15.149949 15.149949 0 0 1-0.65641 0.73518l-0.393846 0.367589a75.986051 75.986051 0 0 1-54.35077 22.974359H136.79616l1.024 10.450052a413.906051 413.906051 0 0 0 116.841026 249.409641C331.303647 813.843692 433.257288 856.615385 541.696263 856.615385c108.465231 0 210.445128-42.771692 287.087589-120.438154a415.035077 415.035077 0 0 0 116.998564-249.409641l1.024-10.450052h-25.862564c-20.453744 0-39.778462-8.139487-54.429538-22.921846a78.244103 78.244103 0 0 1-22.580513-55.085948v-274.720821c0-19.797333 7.430564-38.623179 20.978872-53.274256l1.68041-1.680411a76.222359 76.222359 0 0 1 54.350769-23.079384h78.532923c19.272205 0 37.599179 7.351795 51.961436 20.716307l2.310564 2.41559A77.797744 77.797744 0 0 1 1076.513083 123.588923V398.309744c0 19.639795-7.483077 38.570667-21.057641 53.248l-0.183795 0.210051c-0.498872 0.551385-0.971487 1.102769-1.444102 1.575384a75.986051 75.986051 0 0 1-54.35077 22.974359h-13.96841l-0.735179 8.664616a453.26441 453.26441 0 0 1-128.498872 279.000615C772.280057 849.106051 660.532775 896 541.696263 896s-230.531282-46.893949-314.551795-132.017231a452.97559 452.97559 0 0 1-128.551385-279.000615l-0.735179-8.664616h-20.821334c-20.453744 0-39.778462-8.139487-54.455795-22.921846A78.244103 78.244103 0 0 1 0.000263 398.309744v-244.81477c0-57.632821 28.987077-105.734564 86.121025-142.887384 66.166154-43.060513 157.249641-60.389744 215.145026-62.122667l0.36759-0.026256c0.918974-0.052513 1.890462-0.131282 2.625641-0.131282h191.619282l1.96923-6.826667a95.652103 95.652103 0 0 1 43.218052-56.214974l0.708923-0.446359z m46.998974 26.440205a55.138462 55.138462 0 0 0-25.652513 6.354051l-0.866461 0.498872a19.009641 19.009641 0 0 1-2.179282 1.31282l-0.656411 0.288821-0.630153 0.393846a56.425026 56.425026 0 0 0-23.867077 33.266872 55.217231 55.217231 0 0 0-1.890462 13.469538l-0.026256 2.546872 0.026256 0.078769a57.238974 57.238974 0 0 0 7.299282 26.886564l2.70441 4.778667h0.420103a55.66359 55.66359 0 0 0 71.338667 17.276718l0.525128-0.288821 0.472615-0.315076c0.551385-0.393846 1.234051-0.787692 1.995487-1.181539l0.73518-0.420102c12.104205-7.614359 20.795077-19.508513 24.497231-33.529436a57.737846 57.737846 0 0 0-4.306052-40.802462l-0.262564-0.551385-0.341333-0.498871a27.884308 27.884308 0 0 1-1.470359-2.468103l-0.183795-0.28882a55.821128 55.821128 0 0 0-47.681641-26.807795z m410.702769 173.659897h-78.532923c-9.951179 0-19.744821 4.148513-26.834051 11.342769l-9.609846 16.226462a38.649436 38.649436 0 0 0-1.654154 11.080205V398.309744c0 10.082462 4.069744 20.007385 11.185231 27.201641a37.546667 37.546667 0 0 0 26.91282 11.421538h78.532923c10.003692 0 19.482256-4.017231 26.729026-11.290256l1.627897-1.575385c6.301538-7.141744 9.767385-16.278974 9.767385-25.757538v-274.720821c0-10.056205-4.096-19.954872-11.185231-27.149128l-6.695384-6.747898-0.840205 0.840206a36.575179 36.575179 0 0 0-19.403488-5.592616z"  horiz-adv-x="1076" />

    
    <glyph glyph-name="yanzhengma" unicode="&#58880;" d="M512-108.24l-8.49 3.090c-162.317 59.081-293.914 176.81-370.547 331.503-76.305 154.027-90.702 329.294-40.541 493.515l5.356 17.536 18.336 0.036c138.896 0.271 270.445 45.876 380.425 131.889l15.314 11.977 15.298-11.999c109.638-85.996 241.294-131.594 380.735-131.866l18.336-0.036 5.355-17.536c50.162-164.221 35.763-339.487-40.54-493.515-76.635-154.693-208.23-272.422-370.547-331.503l-8.491-3.090zM134.892 688.087c-84.432-307.554 78.343-629.806 377.108-743.425 298.765 113.62 461.54 435.87 377.108 743.423-69.442 2.039-137.527 14.699-202.659 37.705-62.514 22.081-121.174 53.26-174.638 92.797-53.539-39.498-112.149-70.652-174.485-92.719-65.111-23.050-133.124-35.734-202.433-37.781zM466.595 204.033c-6.353 0-12.705 2.423-17.553 7.27l-140.406 140.406c-9.694 9.694-9.694 25.411 0 35.105 9.695 9.694 25.411 9.694 35.106 0l122.854-122.854 263.308 263.284c9.695 9.695 25.411 9.694 35.106-0.001 9.694-9.695 9.694-25.411-0.001-35.105l-280.862-280.836c-4.847-4.846-11.201-7.269-17.552-7.269z"  horiz-adv-x="1024" />

    
    <glyph glyph-name="dizhi" unicode="&#58910;" d="M506.526849 44.359946l16.375136-15.267211 16.18679 15.472177c12.054228 11.522424 295.33412 285.23538 295.334119 540.335191 0 171.545621-139.836797 311.105437-311.725875 311.105437C350.82456 896 210.998842 756.445724 210.998842 584.894563c0-261.968948 283.45716-529.278096 295.528007-540.534617m16.17017 804.3538c145.769738 0 264.356527-118.348585 264.356527-263.819183 0-201.564858-204.739064-428.030338-264.550414-489.874731C462.531133 155.74522 258.37927 377.695905 258.37927 584.894563c-0.00554 145.470598 118.57017 263.819183 264.317749 263.819183m147.619973-253.975266c0 81.233086-66.220698 147.315293-147.625512 147.315293-81.377117 0-147.581196-66.082207-147.581196-147.315293 0-81.227547 66.204079-147.315293 147.581196-147.315294 81.404815 0.00554 147.625513 66.093286 147.625512 147.315294m-247.83736 0c0 55.163603 44.948531 100.034579 100.206308 100.034579 55.279935 0 100.250625-44.870976 100.250625-100.034579 0-55.158063-44.976229-100.02904-100.250625-100.02904-55.257777 0.00554-100.206308 44.876516-100.206308 100.02904m622.925486-561.612897c0-105.784712-262.955001-161.125583-522.708099-161.125583-259.736478 0-522.68594 55.340871-522.68594 161.125583 0 93.868975 202.550912 133.006438 289.639384 145.470598 12.923949 1.794839 24.950479-7.1295 26.800714-20.047909a23.654206 23.654206 0 0 0-20.086687-26.756398c-181.378458-25.958691-248.978523-74.286394-248.978523-98.666291 0-46.427612 185.162023-113.844869 475.305513-113.844869 290.171187 0 475.33875 67.417257 475.33875 113.844869 0 24.568245-68.248201 73.16185-251.3938 99.009748a23.654206 23.654206 0 0 0-20.147623 26.71208c1.839156 12.929489 13.871225 21.837209 26.767476 20.103306 87.847401-12.403224 292.148834-51.424355 292.148835-145.825134"  horiz-adv-x="1045" />

    
    <glyph glyph-name="chaxun" unicode="&#58955;" d="M434.721 627.253c-91.476 0-165.974-74.499-165.974-165.974s74.499-165.974 165.974-165.974c91.476 0 165.974 74.499 165.974 165.974 0 91.476-74.499 165.974-165.974 165.974zM434.721 553.487c-50.787 0-92.21-41.422-92.21-92.21h-36.883c0 71.132 57.963 129.094 129.094 129.094v-36.883zM512 883.979c-276.187 0-499.979-223.791-499.979-499.979s223.791-499.979 499.979-499.979 499.979 223.791 499.979 499.979-223.791 499.979-499.979 499.979zM434.721 239.98c-122.213 0-221.303 99.090-221.303 221.303s99.090 221.303 221.303 221.303c122.213 0 221.303-99.090 221.303-221.303 0-122.213-99.090-221.303-221.303-221.303zM787.309 108.691c-21.516-21.662-56.641-21.662-78.302 0l-135.386 135.386c31.322 20.195 58.107 46.836 78.302 78.302l135.386-135.386c21.662-21.806 21.662-56.791 0-78.302z"  horiz-adv-x="1024" />

    
    <glyph glyph-name="weixin" unicode="&#58975;" d="M498.816 550.944c26.336 0 43.936 17.632 43.936 43.904 0 26.56-17.568 43.744-43.936 43.744s-52.832-17.184-52.832-43.744c0.032-26.272 26.496-43.904 52.832-43.904z m-245.728 87.648c-26.336 0-52.96-17.184-52.96-43.744 0-26.272 26.624-43.904 52.96-43.904 26.24 0 43.808 17.632 43.808 43.904-0.032 26.56-17.568 43.744-43.808 43.744zM1024 269.888c0 138.88-128.832 257.216-286.976 269.536 0.224 1.728 0.32 3.52-0.064 5.312-31.712 147.84-190.688 259.296-369.824 259.296C164.704 804.032 0 662.88 0 489.376c0-93.088 47.52-176.96 137.568-243.104l-31.392-94.368c-2.016-6.144-0.192-12.896 4.704-17.152a16.109 16.109 0 0 1 10.496-3.904 16.26 16.26 0 0 1 7.168 1.696L246.4 191.52l14.528-2.944c36.288-7.456 67.616-13.92 106.208-13.92a405.7 405.7 0 0 1 34.176 1.472c4.576 0.384 8.448 2.688 11.072 6.016C454.88 75.808 572-0.96 709.824-0.96c35.296 0 71.04 8.512 103.104 16.544l90.848-49.664a16.06 16.06 0 0 1 7.68-1.984 15.99 15.99 0 0 1 10.048 3.552c5.056 4.096 7.136 10.848 5.248 17.024l-23.2 77.152C981.344 123.136 1024 196.672 1024 269.888z m-625.408-61.856c-10.4-0.896-20.96-1.344-31.424-1.344-35.328 0-65.216 6.112-99.776 13.248L247.296 224a15.457 15.457 0 0 1-10.272-1.376l-88.288-44.192 22.944 68.928a16.014 16.014 0 0 1-6.016 18.176C76.96 327.36 32 402.688 32 489.376c0 155.84 150.336 282.656 335.136 282.656 163.36 0 308-99.392 337.856-231.584-171.296-2.24-309.888-122.656-309.888-270.56 0-21.504 3.264-42.336 8.768-62.432-1.664 0.416-3.424 0.736-5.28 0.576z m476.864-127.584a16.02 16.02 0 0 1-5.696-17.376l15.136-50.336-62.112 33.984a15.876 15.876 0 0 1-7.68 1.984c-1.312 0-2.624-0.16-3.904-0.512-33.312-8.416-67.776-17.088-101.344-17.088-155.904 0-282.72 107.136-282.72 238.816s126.816 238.784 282.72 238.784C862.784 508.704 992 399.36 992 269.92c0-65.664-41.376-132.96-116.544-189.472zM612.992 384.032c-17.568 0-35.136-17.696-35.136-35.232 0-17.664 17.568-35.104 35.136-35.104 26.4 0 43.84 17.44 43.84 35.104 0 17.568-17.44 35.232-43.84 35.232z m193.024 0c-17.312 0-34.88-17.696-34.88-35.232 0-17.664 17.568-35.104 34.88-35.104 26.304 0 44.064 17.44 44.064 35.104 0 17.568-17.728 35.232-44.064 35.232z"  horiz-adv-x="1024" />

    
    <glyph glyph-name="xiaoyuhao" unicode="&#59139;" d="M710.384 880.348l-463.113-463.67c-8.399-8.401-13.593-20.006-13.593-32.824s5.195-24.423 13.593-32.824l464.274-464.831c8.456-8.758 20.301-14.197 33.417-14.197 25.641 0 46.427 20.786 46.427 46.427 0 13.092-5.419 24.919-14.137 33.359l-464.287 464.89v-65.648l463.113 463.717c8.73 8.452 14.15 20.279 14.15 33.371 0 25.641-20.786 46.427-46.427 46.427-13.116 0-24.961-5.438-33.404-14.183z"  horiz-adv-x="1024" />

    
    <glyph glyph-name="zhinan" unicode="&#58924;" d="M1007.05201 375.099001c0-0.119555 0.072336-0.230068 0.072336-0.351632 0-0.365697-0.201937-0.679153-0.211984-1.039828-1.155363-277.250987-225.584151-501.703887-502.532736-501.703887S2.995222 96.456554 1.843878 373.707541c-0.01507 0.360674-0.206961 0.674129-0.206961 1.039828 0 0.12056 0.067312 0.227054 0.067312 0.351632 0 0.241119-0.067312 0.462145-0.067312 0.694222 0 278.238571 225.083829 503.797607 502.744719 503.797607 277.655866 0 502.744719-225.559036 502.744719-503.797607 0-0.232077-0.072336-0.457122-0.072336-0.699245L1007.054019 375.099001 1007.05201 375.099001zM537.898218 807.082248l0-30.137899c0-18.505904-15.009674-33.516582-33.516582-33.516582-18.514946 0-33.516582 15.011684-33.516582 33.516582L470.865054 807.082248C257.416233 790.550509 88.472001 621.524899 71.897061 408.26596l30.286589 0c18.506908 0 33.516582-15.001637 33.516582-33.518592 0-18.504899-15.009674-33.516582-33.516582-33.516583L72.045752 341.230785c16.532744-213.437769 185.558354-382.387024 398.818297-398.961964l0 30.281566c0 18.506908 15.005656 33.517587 33.516582 33.517587 18.506908 0 33.516582-15.011684 33.516583-33.517587l0-30.137899c213.437769 16.532744 382.387024 185.568401 398.961964 398.818297l-30.281566 0c-18.516955 0-33.516582 15.011684-33.516583 33.516583 0 18.516955 15.000632 33.518592 33.516583 33.518592l30.281566 0C920.284237 621.524899 751.335988 790.550509 537.898218 807.082248L537.898218 807.082248 537.898218 807.082248zM615.023229 280.560155c-3.273194-6.706129-8.684312-12.126289-15.395465-15.395465L248.861523 75.5917c-4.679723-2.287619-9.720121-3.398777-14.693205-3.398777-8.704406 0-17.279209 3.379689-23.715084 9.811545-10.125 10.114953-12.700957 25.548595-6.412768 38.40829l189.583036 350.761217c3.263148 6.706129 8.685317 12.126289 15.395465 15.400488L755.697232 672.074547c12.915956 6.288189 28.336537 3.664009 38.418337-6.417791 10.130023-10.114953 12.695934-25.543572 6.412768-38.408289L615.023229 280.565179 615.023229 280.560155 615.023229 280.560155zM448.78958 431.408386L307.095844 178.637033 559.856147 320.331773l137.582653 248.659266L448.78958 431.408386 448.78958 431.408386 448.78958 431.408386zM448.78958 431.408386"  horiz-adv-x="1024" />

    
    <glyph glyph-name="jiekuan" unicode="&#58935;" d="M644.461714-128l-392.557714 77.165714H117.686857v364.982857l191.268572 38.546286 352.329142-150.893714a109.714286 109.714286 0 0 0 43.885715-35.035429l228.132571 129.828572a95.085714 95.085714 0 0 0 53.686857 14.043428 115.053714 115.053714 0 0 0 97.353143-59.684571 133.632 133.632 0 0 0 10.020572-87.771429 115.638857 115.638857 0 0 0-53.686858-66.706285L644.461714-128z m-452.900571 150.893714h70.436571l369.078857-73.728 369.078858 210.578286a26.404571 26.404571 0 0 1 16.749714 24.576 27.355429 27.355429 0 0 1-3.364572 28.013714 41.984 41.984 0 0 1-50.322285 17.554286l-224.768-126.317714a150.454857 150.454857 0 0 0-10.093715-56.100572 128.219429 128.219429 0 0 0-117.394285-80.457143 103.424 103.424 0 0 0-47.030857 10.532572l-140.873143 59.684571V138.971429l177.810285-77.238858a42.349714 42.349714 0 0 1 50.322286 21.065143l3.364572 14.043429a41.252571 41.252571 0 0 1-23.478858 38.619428l-329.142857 143.872-110.665143-24.576v-231.570285zM0 313.856h73.801143v-364.982857H0v364.982857z m845.531429 168.228571a30.866286 30.866286 0 0 0 33.499428-28.086857 33.572571 33.572571 0 0 0-33.499428-28.086857H674.377143v-101.741714a32.402286 32.402286 0 0 0-36.571429-28.086857 31.158857 31.158857 0 0 0-33.572571 28.086857V425.910857h-171.154286a28.525714 28.525714 0 1 0 0 56.173714h171.154286v87.771429h-171.154286a30.866286 30.866286 0 0 0-33.499428 28.086857 33.572571 33.572571 0 0 0 33.499428 28.086857h144.310857L429.787429 854.089143C419.693714 868.132571 426.422857 882.176 446.537143 892.708571a44.982857 44.982857 0 0 0 46.957714-10.532571l150.966857-231.643429L792.137143 878.665143a39.131429 39.131429 0 0 0 46.957714 10.532571 26.185143 26.185143 0 0 0 16.749714-35.108571L708.242286 622.518857h140.946285a28.525714 28.525714 0 1 0 0-56.173714H678.034286v-87.771429l167.789714 3.510857z"  horiz-adv-x="1099" />

    
    <glyph glyph-name="weibiaoti-" unicode="&#58941;" d="M498.346667 56.32h20.48c20.48 0 34.133333 13.653333 34.133333 34.133333V254.293333c0 20.48-13.653333 34.133333-34.133333 34.133334h-20.48c-20.48 0-34.133333-13.653333-34.133334-34.133334v-163.84c0-20.48 13.653333-34.133333 34.133334-34.133333zM860.16 472.746667v68.266666c0 204.8-157.013333 354.986667-348.16 354.986667S163.84 738.986667 163.84 547.84v-68.266667H68.266667v-491.52c0-68.266667 54.613333-116.053333 116.053333-116.053333h655.36c61.44 0 116.053333 54.613333 116.053333 116.053333V472.746667h-95.573333zM232.106667 547.84C232.106667 698.026667 361.813333 827.733333 512 827.733333c150.186667 0 279.893333-122.88 279.893333-279.893333v-68.266667H232.106667v68.266667z m655.36-559.786667c0-27.306667-20.48-47.786667-47.786667-47.786666H184.32c-27.306667 0-47.786667 20.48-47.786667 47.786666V404.48h750.933334v-416.426667z"  horiz-adv-x="1024" />

    
    <glyph glyph-name="tongzhi" unicode="&#58894;" d="M622.592 814.08c-13.312 0-25.6-4.096-36.864-11.264l-348.16-230.4c-14.336-9.216-31.744-15.36-49.152-15.36h-69.632C80.896 558.08 51.2 528.384 51.2 491.52v-202.752c0-36.864 29.696-66.56 66.56-66.56h69.632c17.408 0 34.816-5.12 49.152-15.36l349.184-230.4c11.264-7.168 23.552-11.264 36.864-11.264 36.864 0 66.56 29.696 66.56 66.56V747.52c1.024 36.864-29.696 66.56-66.56 66.56zM102.4 288.768V491.52c0 8.192 7.168 15.36 15.36 15.36h66.56v-233.472h-66.56c-8.192 0-15.36 7.168-15.36 15.36z m535.552-256c0-9.216-8.192-15.36-15.36-15.36-3.072 0-6.144 1.024-8.192 3.072L265.216 249.856c-8.192 5.12-16.384 10.24-25.6 13.312V517.12c9.216 3.072 17.408 8.192 25.6 13.312l349.184 230.4c3.072 2.048 5.12 3.072 8.192 3.072 7.168 0 15.36-6.144 15.36-15.36v-715.776z m159.744 477.184c-11.264 9.216-27.648 7.168-35.84-4.096-9.216-11.264-7.168-27.648 4.096-35.84 27.648-22.528 44.032-56.32 44.032-92.16 0-34.816-15.36-67.584-41.984-90.112-11.264-9.216-12.288-25.6-3.072-35.84 5.12-6.144 12.288-9.216 19.456-9.216 6.144 0 11.264 2.048 16.384 6.144 38.912 31.744 60.416 79.872 60.416 130.048s-22.528 98.304-63.488 131.072zM867.328 624.64c-11.264 8.192-27.648 5.12-35.84-7.168-8.192-11.264-5.12-27.648 7.168-35.84 66.56-45.056 106.496-119.808 106.496-199.68 0-84.992-43.008-161.792-115.712-205.824-12.288-7.168-16.384-23.552-8.192-34.816 5.12-8.192 13.312-12.288 21.504-12.288 4.096 0 9.216 1.024 13.312 4.096 88.064 53.248 140.288 146.432 140.288 249.856-1.024 96.256-49.152 186.368-129.024 241.664z"  horiz-adv-x="1024" />

    
    <glyph glyph-name="fangdajing" unicode="&#58913;" d="M224.066987 479.644587h51.725653s5.047467 126.361173 133.88288 127.601493v52.544s-172.299947 7.196587-185.608533-180.145493z m372.887466-336.415574l153.260374-154.219093c39.911253-39.92576 104.41728-39.92576 144.20224 0 39.770453 40.06656 39.764053 104.96 0 144.878933l-153.1264 154.219094-144.336214-144.878934zM420.79872 737.993813c-138.16832 0-250.544213-112.77056-250.544213-251.411626 0-138.647467 112.375893-251.42528 250.53696-251.42528 138.020267 0 250.241707 112.777813 250.241706 251.42528 0.006827 138.641067-112.34816 251.411627-250.241706 251.411626h0.007253z m0-573.636266c-177.00864 0-321.04192 144.470187-321.04192 322.225493 0 177.664427 144.03328 322.353067 321.034667 322.353067 176.860587 0 320.767147-144.618667 320.767146-322.353067 0-177.755733-143.906133-322.225493-320.767146-322.225493h0.007253z"  horiz-adv-x="1024" />

    
    <glyph glyph-name="banlishuiqia" unicode="&#58989;" d="M386.5 304.8c0.5 0.6 1 1.2 1.8 1.9l17.1 17.1c2.9 2.9 4.2 5.8 4 8.9-0.2 3-1 6.1-2.5 9.3 0.5-0.3 1.2-0.7 2.1-1.2 0.9-0.5 1.9-0.9 3-1.1 1.9-0.4 4.2-0.2 6.8 0.5 2.6 0.7 5.6 2.8 8.9 6.1l1.5 1.5c5.7 5.7 7.9 11 6.8 15.9-1.1 5-3.8 9.5-7.8 13.5l-20.6 20.6-59.3-59.3 13.4-13.4 25.2 25.2c0.4-0.5 0.9-1 1.3-1.5s0.8-0.9 1.3-1.3c1.5-1.5 2.5-3 3.1-4.4 0.6-1.5-0.3-3.6-2.6-6.3L375.3 322c-1.1-1.1-2-2.2-2.5-3.1-0.5-0.9-0.8-1.6-0.9-2.2-0.2-0.5-0.2-1.1-0.1-1.7l13-13c0.2 0.4 0.5 0.8 0.7 1.2 0.2 0.5 0.5 1 1 1.6z m20.1 49.6c-1.8-0.3-3.9 0.8-6.4 3.3l-0.6 0.6c-0.2 0.2-0.5 0.5-0.6 0.8l-0.6 0.6-0.5 0.5-0.3 0.3-0.3 0.3 13 13c2.7-2.7 4.6-5.1 5.8-7.2 1.1-2.1 0.2-4.6-2.7-7.5-2.7-2.9-5-4.4-6.8-4.7zM373.9 431.6l-70.4-48.2 13.4-13.4 12.2 8.7 9.5-9.5-9.3-11.6 14.1-14.1 48.7 69.9-18.2 18.2z m-33-43.5l33 25.6-25.8-32.7-7.2 7.1zM471.9 333.5l-21.1 21.1-59.3-59.3 20-20c4.2-4.2 8.2-6.5 12.1-7 3.9-0.5 7.2-0.2 10.1 1 1.4 0.5 2.7 1.2 3.7 1.9 1.1 0.7 2 1.5 2.7 2.2l32.4 32.4c5 5 7.3 9.6 7.1 13.8-0.2 4.4-2.8 9-7.7 13.9z m-43.6-44.7c-1.7-1.7-3.6-2.5-5.7-2.4-2.1 0.2-4.1 1.3-6.2 3.3-0.2 0.2-0.3 0.3-0.4 0.5-0.1 0.2-0.2 0.3-0.4 0.5l-0.5 0.5c-0.1 0.2-0.3 0.4-0.4 0.5l38.8 38.8c3.9-3.9 5.9-6.5 6.2-7.9 0.3-1.4-1.3-3.9-4.8-7.3l-26.6-26.5zM351.3 449.6c-0.6 5.9-3.5 11.5-8.8 16.8-6.3 6.3-12.3 9.1-18 8.5-5.7-0.6-10.7-2.6-14.7-6.2-0.4-0.3-0.7-0.6-1-0.9l-0.9-0.9-29.5-29.5c-4.6-4.6-6.6-9.9-6-16 0.6-6 3.3-11.4 8-16.1 6.4-6.4 12.5-9.6 18.3-9.5 5.8 0.1 10.6 2 14.4 5.8l9.5 9.5-13.6 13.5-6.5-6.5c-2.3-2.3-4.5-3.7-6.5-4.2-2-0.4-3.6-0.2-4.7 0.6l-0.2 0.2-0.2 0.2c-1 1-1.4 2.6-1 4.7 0.4 2.1 1.8 4.4 4.3 6.9l27.1 27.1c2.1 2.1 3.9 3.2 5.5 3.3 1.6 0.1 2.9-0.3 3.8-1.2l0.3-0.3c0.1-0.1 0.2-0.2 0.2-0.3 0.9-1.2 1.3-2.7 1.2-4.4-0.1-1.7-0.8-3.3-2.2-4.7l-7.7-7.7 13.5-13.5 8.2 8.2c5.4 5.1 7.8 10.7 7.2 16.6zM991.6 384c0 264.9-214.7 479.6-479.6 479.6C247.1 863.6 32.4 648.9 32.4 384c0-264.9 214.7-479.6 479.6-479.6 264.9 0 479.6 214.7 479.6 479.6zM566.1 84c-10.2-1.5-20.3 0.1-29.8 4.2-8.1 3.4-14.9 8.7-21.1 14.9-95.9 96-191.9 191.9-287.7 287.9-12.7 12.8-18.1 28.6-16.3 46.6 1 9.6 3.8 18.7 9.9 26.4 3 3.7 5.8 7.6 9.2 10.9 38.9 39 77.8 77.9 116.7 116.8l10.6 10.6 371.9-371.9-10.6-10.6C680 180.9 641 142.1 602.2 103c-10.2-10.3-21.9-17-36.1-19zM391.8 636.5l9.8 9.8c7.3 7.3 14.6 14.8 22 22 13 12.6 28.6 18.1 46.5 16.5 9.7-0.9 19-3.8 26.8-10.1 4.3-3.5 8.6-6.8 12.5-10.7 95.1-95 190.2-190.2 285.3-285.3 12.9-12.9 18.7-28.7 17.3-46.7-0.8-9.8-3.4-19.5-10.1-27.1-10-11.4-27.4-29.4-37.9-40.8L391.8 636.5zM541.8 256.6c-0.8 0.8-2.9 1.3-4 0.9-6.7-2.3-13.3-4.8-19.9-7.3-16.3-6.1-32.6-12.1-49.4-18.4l3.7-3.7c23.2-23.2 46.4-46.4 69.6-69.7 2.6-2.6 4.4-3.2 8.2-1.8 22.2 8.5 44.5 16.4 67 24.7-0.6 0.7-0.9 1.2-1.3 1.6-24.7 24.7-49.2 49.3-73.9 73.7z"  horiz-adv-x="1024" />

    
    <glyph glyph-name="hulianwangjinrong" unicode="&#58960;" d="M641.6 28.8c-14.4-4.8-30.4-9.6-46.4-14.4 9.6 9.6 20.8 19.2 28.8 30.4-8 9.6-14.4 19.2-19.2 30.4-22.4-27.2-48-49.6-76.8-67.2V172.8c22.4 0 44.8-3.2 67.2-6.4 3.2 12.8 8 25.6 14.4 36.8-25.6 4.8-52.8 8-80 9.6v153.6h177.6c-1.6-33.6-4.8-65.6-11.2-96 11.2 3.2 22.4 4.8 35.2 4.8h4.8c6.4 28.8 9.6 59.2 11.2 91.2h142.4c-3.2-56-17.6-108.8-41.6-155.2 11.2-16 17.6-35.2 20.8-56 41.6 65.6 67.2 144 67.2 228.8C934.4 617.6 745.6 806.4 512 806.4S89.6 617.6 89.6 384 278.4-38.4 512-38.4c65.6 0 126.4 14.4 182.4 41.6-19.2 4.8-38.4 14.4-52.8 25.6z m248 372.8h-144c-3.2 68.8-19.2 132.8-43.2 190.4 32 12.8 62.4 28.8 89.6 46.4 57.6-64 92.8-147.2 97.6-236.8z m-123.2 260.8c-24-14.4-51.2-27.2-80-38.4-27.2 51.2-62.4 96-100.8 129.6 68.8-12.8 131.2-44.8 180.8-91.2zM528 750.4c49.6-30.4 92.8-78.4 123.2-137.6-38.4-11.2-80-17.6-123.2-19.2V750.4z m0-195.2c49.6 1.6 96 9.6 139.2 24 22.4-52.8 36.8-113.6 38.4-177.6H528v153.6zM424 750.4c-36.8-32-70.4-75.2-96-123.2-25.6 9.6-49.6 20.8-72 35.2 48 41.6 104 73.6 168 88z m-193.6-115.2c25.6-16 51.2-30.4 81.6-41.6-25.6-57.6-41.6-123.2-44.8-193.6H134.4c4.8 91.2 40 172.8 96 235.2z m-96-268.8h131.2c1.6-70.4 17.6-136 43.2-193.6-27.2-11.2-54.4-25.6-78.4-41.6-56 64-91.2 145.6-96 235.2zM256 105.6c20.8 12.8 44.8 24 68.8 33.6 24-46.4 54.4-88 88-120-57.6 16-112 46.4-156.8 86.4z m238.4-99.2h-3.2c-52.8 30.4-97.6 80-131.2 144 41.6 12.8 88 20.8 134.4 22.4v-166.4z m0 206.4c-52.8-1.6-104-11.2-150.4-27.2-22.4 54.4-35.2 116.8-36.8 180.8h187.2v-153.6z m0 188.8H307.2c3.2 64 16 126.4 40 180.8 46.4-14.4 96-24 147.2-25.6v-155.2z m0 193.6c-46.4 1.6-89.6 8-131.2 20.8 33.6 62.4 78.4 112 131.2 140.8v-161.6zM729.6 275.2c-76.8 0-139.2-62.4-139.2-139.2 0-76.8 62.4-139.2 139.2-139.2s139.2 62.4 139.2 139.2c0 76.8-62.4 139.2-139.2 139.2z m0-246.4a107.2 107.2 0 1 0 107.2 107.2c1.6-59.2-46.4-107.2-107.2-107.2zM776 104h-35.2v22.4h35.2c4.8 0 8 3.2 8 8s-3.2 8-8 8h-30.4l33.6 60.8c1.6 1.6 1.6 3.2 1.6 6.4 0 4.8-4.8 9.6-9.6 9.6s-8-3.2-9.6-6.4c0 0-28.8-56-30.4-60.8-1.6 4.8-32 60.8-32 60.8-1.6 3.2-4.8 6.4-9.6 6.4s-9.6-4.8-9.6-9.6c0-1.6 0-3.2 1.6-4.8l33.6-62.4h-30.4c-4.8 0-8-3.2-8-8s3.2-8 8-8h36.8v-22.4h-36.8c-4.8 0-8-3.2-8-8s3.2-8 8-8h36.8v-32c0-4.8 4.8-9.6 9.6-9.6s9.6 4.8 9.6 9.6v32h35.2c4.8 0 8 3.2 8 8s-3.2 8-8 8z"  horiz-adv-x="1024" />

    
    <glyph glyph-name="dui" unicode="&#58908;" d="M512-119.3728C236.5696-119.3728 12.4928 106.7776 12.4928 384.768 12.4928 662.7328 236.5696 888.8832 512 888.8832S1011.5072 662.7328 1011.5072 384.768c0-277.9904-224.0768-504.1408-499.5072-504.1408z m0 931.456c-233.088 0-422.7072-191.6928-422.7072-427.3152 0-235.648 189.6192-427.3408 422.7072-427.3408 233.0624 0 422.7072 191.6928 422.7072 427.3408 0 235.6224-189.6448 427.3152-422.7072 427.3152zM444.4928 211.7376a25.6 25.6 0 0 0-18.3296 7.7312l-149.5552 153.4976a25.6 25.6 0 1 0 36.6848 35.712l132.1728-135.6544 301.1584 277.9648a25.6 25.6 0 1 0 34.7136-37.632L461.8752 218.5216a25.472 25.472 0 0 0-17.3824-6.784z"  horiz-adv-x="1024" />

    
    <glyph glyph-name="zhanghu1" unicode="&#59037;" d="M532.48 852.48c-265.728 0-481.28-215.552-481.28-481.28s215.552-481.28 481.28-481.28 481.28 215.552 481.28 481.28-215.552 481.28-481.28 481.28z m337.408-730.112c-28.16 54.272-69.12 100.864-119.808 136.192-38.4 26.624-80.896 46.08-125.44 56.832 58.88 32.256 98.304 94.72 98.304 165.888 0 104.448-84.992 188.928-188.928 188.928-104.448 0-188.928-84.992-188.928-188.928 0-71.68 39.936-133.632 98.304-165.888-43.52-10.752-84.992-29.184-122.368-54.784-52.736-36.352-95.232-84.48-123.904-140.8-20.48 27.136-37.376 56.832-50.688 88.576-22.016 51.712-32.768 106.496-32.768 163.328s11.264 111.616 32.768 163.328c20.992 49.664 51.2 94.72 89.6 133.12s83.456 68.608 133.12 89.6c51.712 22.016 106.496 32.768 163.328 32.768 56.832 0 111.616-11.264 163.328-32.768 49.664-20.992 94.72-51.2 133.12-89.6s68.608-83.456 89.6-133.12c22.016-51.712 32.768-106.496 32.768-163.328s-11.264-111.616-32.768-163.328c-12.8-30.72-29.184-59.392-48.64-86.016z"  horiz-adv-x="1024" />

    
    <glyph glyph-name="handle-card-empty" unicode="&#58882;" d="M940.6069999999999 21.368000000000052H224.74599999999998c-51.83 0-94.018 51.64999999999999-94.018 115.29300000000002V689.6179999999999c0 63.64300000000001 42.187 115.232 94.078 115.232h715.801c51.951 0 94.078-51.58899999999999 94.078-115.232v-552.957c0-63.702999999999996-42.187-115.29300000000002-94.078-115.29300000000002z m56.471 635.645c0 56.23-37.185 101.733-82.928 101.733H251.26300000000003c-45.803 0-82.868-45.50299999999999-82.868-101.733v-36.522h828.683v36.522zM168.39499999999998 482.297v-313.092c0-56.17 37.125-101.732 82.868-101.732H914.21c45.803 0 82.928 45.502 82.928 101.732V482.23699999999997H168.39499999999998zM714.5419999999999 136.65999999999997l56.471 138.254h188.398l-56.532-138.254H714.5419999999999z"  horiz-adv-x="1170" />

    
    <glyph glyph-name="laba" unicode="&#58967;" d="M524.12416 705.80736L328.26368 580.0192H230.55872c-54.29248 0-98.304-43.46368-98.304-97.90976v-196.20864c0-54.09792 43.46368-97.90464 98.304-97.90464h97.70496l195.86048-125.696c27.68896-12.00128 49.152 0.83968 49.152 28.07808V677.72928c0 27.29472-21.99552 39.79264-49.152 28.07808zM689.16224 547.72736a24.4224 24.4224 0 0 1-34.59072 1.1776 24.5248 24.5248 0 0 1-1.17248-34.64704c4.55168-4.89984 12.34432-15.72864 20.38784-32.09728 13.71648-27.93472 21.99552-60.71296 21.99552-98.14528 0-37.44256-8.27904-70.27712-21.99552-98.16064-8.04352-16.36864-15.84128-27.19744-20.38784-32.09728a24.49408 24.49408 0 0 1 1.17248-34.64704 24.4992 24.4992 0 0 1 34.65216 1.1776c7.68 8.22784 18.27328 22.93248 28.56448 43.9552 16.91136 34.39616 26.99776 74.47552 26.99776 119.81312 0 45.32736-10.09152 85.40672-26.99776 119.808-10.34752 20.93056-20.93056 35.67616-28.62592 43.86304zM839.40864 578.05824c-19.80416 33.52064-39.78752 56.74496-53.8112 69.24288-10.09664 9.0112-25.5744 8.13056-34.59584-2.01216s-8.12544-25.57952 2.01216-34.59584c2.29888-2.05824 6.912-6.66624 13.0816-13.81888 10.58816-12.25216 21.17632-26.8544 31.11936-43.70944 28.47744-48.31744 45.568-104.81664 45.568-169.15456 0-64.34304-17.09568-120.85248-45.6192-169.21088-9.94304-16.86016-20.57728-31.45728-31.11424-43.71456-6.17984-7.15264-10.7776-11.75552-13.08672-13.81376a24.54528 24.54528 0 0 1-2.00704-34.59584c8.96512-10.09664 24.50432-10.9824 34.59584-2.01216 14.00832 12.49792 34.00704 35.67616 53.80096 69.23776 32.73728 55.52128 52.38784 120.448 52.38784 194.10432 0.04608 73.60512-19.59936 138.53696-52.33152 194.05312z"  horiz-adv-x="1024" />

    
    <glyph glyph-name="jiagou" unicode="&#58931;" d="M48-102.4c-19.2 0-35.2 16-35.2 35.2v214.4c0 19.2 16 35.2 35.2 35.2h83.2V352c0 35.2 28.8 67.2 67.2 67.2h291.2v160h-83.2c-19.2 0-35.2 16-35.2 35.2V832c0 19.2 16 35.2 35.2 35.2h214.4c19.2 0 35.2-16 35.2-35.2v-214.4c0-19.2-16-35.2-35.2-35.2h-83.2v-160h291.2c35.2 0 67.2-28.8 67.2-67.2v-166.4h83.2c19.2 0 38.4-16 38.4-38.4V-64c0-19.2-16-35.2-35.2-35.2h-217.6c-19.2 0-35.2 16-35.2 35.2v214.4c0 19.2 16 35.2 35.2 35.2h83.2V352c0 9.6-6.4 16-16 16h-291.2v-185.6h83.2c19.2 0 35.2-16 35.2-35.2V-64c0-19.2-16-35.2-35.2-35.2h-217.6c-19.2 0-35.2 16-35.2 35.2v214.4c0 19.2 16 35.2 35.2 35.2h83.2v185.6H198.4c-9.6 0-16-6.4-16-16v-169.6h83.2c19.2 0 35.2-16 35.2-35.2V-64c0-19.2-16-35.2-35.2-35.2H48z m723.2 48h192v192h-192v-192z m-355.2 0h192v192h-192v-192z m-355.2 0h192v192h-192v-192zM416 630.4h192v192h-192v-192z"  horiz-adv-x="1024" />

    


  </font>
</defs>
</svg>
